HIERARCHY
ROOT Hips
{
	OFFSET 0.000000 0.000000 0.000000
	CHANNELS 6 Xposition Yposition Zposition Xrotation Yrotation Zrotation
	JOINT LeftUpLeg_virtual
	{
		OFFSET 0.000000 0.000000 0.000000
		CHANNELS 3 Xrotation Yrotation Zrotation
		JOINT LeftUpLeg
		{
			OFFSET 10.205400 -3.823500 0.155100
			CHANNELS 3 Xrotation Yrotation Zrotation
			JOINT LeftLeg
			{
				OFFSET 0.708757 -12.982077 0.567790
				CHANNELS 3 Xrotation Yrotation Zrotation
				JOINT LeftFoot
				{
					OFFSET -0.708756 -10.717838 -2.184338
					CHANNELS 3 Xrotation Yrotation Zrotation
					JOINT LeftToeBase
					{
						OFFSET 0.108149 -7.191104 7.560241
						CHANNELS 3 Xrotation Yrotation Zrotation
						JOINT LeftToe_End
						{
							OFFSET 0.070230 0.081724 4.490308
							CHANNELS 3 Xrotation Yrotation Zrotation
							End Site
							{
								OFFSET 0 0 0
							}
						}
					}
				}
			}
		}
	}
	JOINT RightUpLeg_virtual
	{
		OFFSET 0.000000 0.000000 0.000000
		CHANNELS 3 Xrotation Yrotation Zrotation
		JOINT RightUpLeg
		{
			OFFSET -10.205400 -3.823500 0.005500
			CHANNELS 3 Xrotation Yrotation Zrotation
			JOINT RightLeg
			{
				OFFSET -0.708756 -12.982134 0.610632
				CHANNELS 3 Xrotation Yrotation Zrotation
				JOINT RightFoot
				{
					OFFSET 0.708754 -10.717769 -1.945823
					CHANNELS 3 Xrotation Yrotation Zrotation
					JOINT RightToeBase
					{
						OFFSET -0.108140 -7.191069 7.372968
						CHANNELS 3 Xrotation Yrotation Zrotation
						JOINT RightToe_End
						{
							OFFSET -0.070227 0.081735 4.479403
							CHANNELS 3 Xrotation Yrotation Zrotation
							End Site
							{
								OFFSET 0 0 0
							}
						}
					}
				}
			}
		}
	}
	JOINT Spine_virtual
	{
		OFFSET 0.000000 0.000000 0.000000
		CHANNELS 3 Xrotation Yrotation Zrotation
		JOINT Spine
		{
			OFFSET 0.000000 6.876099 0.125700
			CHANNELS 3 Xrotation Yrotation Zrotation
			JOINT Spine1
			{
				OFFSET 0.000000 5.730043 0.104720
				CHANNELS 3 Xrotation Yrotation Zrotation
				JOINT Spine1_split
				{
					OFFSET 0.000000 5.730043 0.104720
					CHANNELS 3 Xrotation Yrotation Zrotation
					JOINT Spine2
					{
						OFFSET 0.000000 5.730043 0.104720
						CHANNELS 3 Xrotation Yrotation Zrotation
						JOINT Neck_virtual
						{
							OFFSET 0.000000 0.000000 0.000000
							CHANNELS 3 Xrotation Yrotation Zrotation
							JOINT Neck
							{
								OFFSET 0.000000 10.314075 0.188496
								CHANNELS 3 Xrotation Yrotation Zrotation
								JOINT Head
								{
									OFFSET 0.000000 7.643700 -2.377400
									CHANNELS 3 Xrotation Yrotation Zrotation
									JOINT HeadTop_End
									{
										OFFSET 0.000000 43.788605 -13.619600
										CHANNELS 3 Xrotation Yrotation Zrotation
										End Site
										{
											OFFSET 0 0 0
										}
									}
								}
							}
						}
						JOINT LeftShoulder_virtual
						{
							OFFSET 0.000000 0.000000 0.000000
							CHANNELS 3 Xrotation Yrotation Zrotation
							JOINT LeftShoulder
							{
								OFFSET 2.196100 4.412489 0.087492
								CHANNELS 3 Xrotation Yrotation Zrotation
								JOINT LeftShoulder_split
								{
									OFFSET 2.196100 4.412489 0.087492
									CHANNELS 3 Xrotation Yrotation Zrotation
									JOINT LeftArm
									{
										OFFSET 8.771219 -2.981674 -0.026999
										CHANNELS 3 Xrotation Yrotation Zrotation
										JOINT LeftForeArm
										{
											OFFSET 8.512804 0.000000 -0.000000
											CHANNELS 3 Xrotation Yrotation Zrotation
											JOINT LeftHand
											{
												OFFSET 18.484802 0.000000 -0.000000
												CHANNELS 3 Xrotation Yrotation Zrotation
												End Site
												{
													OFFSET 0 0 0
												}
											}
										}
									}
								}
							}
						}
						JOINT RightShoulder_virtual
						{
							OFFSET 0.000000 0.000000 0.000000
							CHANNELS 3 Xrotation Yrotation Zrotation
							JOINT RightShoulder
							{
								OFFSET -2.196100 4.412496 0.070690
								CHANNELS 3 Xrotation Yrotation Zrotation
								JOINT RightShoulder_split
								{
									OFFSET -2.196100 4.412496 0.070690
									CHANNELS 3 Xrotation Yrotation Zrotation
									JOINT RightArm
									{
										OFFSET -8.771282 -2.981682 -0.094208
										CHANNELS 3 Xrotation Yrotation Zrotation
										JOINT RightForeArm
										{
											OFFSET -8.494598 0.000000 0.000000
											CHANNELS 3 Xrotation Yrotation Zrotation
											JOINT RightHand
											{
												OFFSET -18.483803 0.000000 0.000001
												CHANNELS 3 Xrotation Yrotation Zrotation
												End Site
												{
													OFFSET 0 0 0
												}
											}
										}
									}
								}
							}
						}
					}
				}
			}
		}
	}
}
MOTION
Frames: 10
Frame Time: 0.03333333
6.000558 14.925027 -1.681505 0.000000 0.000000 0.000000 4.071974 -36.924378 10.181129 -84.167199 -22.997713 57.484108 69.577430 15.164343 -7.558797 53.507600 -4.744550 -4.194663 -2.509217 0.819049 0.309341 0.000000 0.000000 0.000000 -0.201533 -31.766971 9.612839 14.290975 -0.783597 -24.327925 110.438053 15.159801 -5.182620 10.368011 5.334466 22.105697 43.480725 -1.974354 -17.588697 0.000000 0.000000 0.000000 0.586160 -38.343876 9.010783 2.537052 -2.759437 -5.050488 2.159306 -4.064138 -2.160612 0.945075 0.982616 0.018644 0.000000 0.000000 0.000000 1.696420 -4.354886 -2.099051 0.196498 1.719514 2.254647 1.999017 15.139497 5.560268 0.000000 0.000000 0.000000 1.727343 -4.125002 -2.331956 1.574516 1.227815 -1.882427 -4.876758 1.229376 -1.098796 0.297563 -15.226720 -48.315700 178.082443 -86.790818 178.537607 0.000000 0.000000 0.000000 3.025961 -4.073095 -2.376467 5.429525 16.987003 3.311459 -1.465266 4.451906 -0.962410 -32.327289 -13.699416 46.186812 178.368286 83.017780 -178.818000 0.000000 0.000000 0.000000 
5.963981 14.929794 -1.678881 0.000000 0.000000 0.000000 4.216090 -36.887967 10.295165 -84.056850 -22.892699 57.602496 69.537029 15.298423 -7.805761 53.501790 -4.683112 -4.106076 -2.665539 0.819794 0.286206 0.000000 0.000000 0.000000 -0.051717 -31.766814 9.719568 14.127563 -0.711066 -24.259587 110.459178 15.114215 -5.223469 10.301922 5.267373 22.109447 43.630449 -1.931527 -17.349044 0.000000 0.000000 0.000000 0.759785 -38.258482 9.111904 2.483682 -2.684843 -5.276144 2.184775 -3.997343 -2.339584 0.942431 0.968786 0.028739 0.000000 0.000000 0.000000 1.695557 -4.304456 -2.245624 0.029845 1.588631 2.704413 1.879152 15.216941 5.872225 0.000000 0.000000 0.000000 1.724789 -4.046297 -2.490996 1.533777 1.447897 -1.134241 -5.015045 1.102918 -1.258570 0.380390 -15.302359 -48.636537 -179.787859 -86.762991 -179.268314 0.000000 0.000000 0.000000 3.010149 -4.011779 -2.568541 5.392294 17.133302 3.839291 -1.547180 4.504439 -0.890981 -31.226372 -12.524809 43.783292 179.104526 78.915528 -179.517479 0.000000 0.000000 0.000000 
5.925365 14.937468 -1.672142 0.000000 0.000000 0.000000 4.345901 -36.846453 10.374379 -83.974642 -22.774897 57.744222 69.541578 15.447547 -8.050040 53.472660 -4.685334 -4.007735 -2.783147 0.824478 0.253167 0.000000 0.000000 0.000000 0.083481 -31.741959 9.785792 14.015371 -0.672578 -24.134601 110.443674 15.064401 -5.261752 10.260522 5.203985 22.093541 43.785286 -1.891772 -17.128733 0.000000 0.000000 0.000000 0.911233 -38.120905 9.177537 2.413072 -2.590903 -5.493557 2.217103 -3.935443 -2.508803 0.939410 0.934378 0.042789 0.000000 0.000000 0.000000 1.711596 -4.249083 -2.383808 -0.166676 1.430590 3.180922 1.800120 15.255031 6.139930 0.000000 0.000000 0.000000 1.722295 -3.965354 -2.641883 1.476484 1.726621 -0.539568 -5.040377 0.953889 -1.353153 0.431253 -15.448372 -48.813361 -178.208733 -86.687723 -177.623441 0.000000 0.000000 0.000000 3.003078 -3.946821 -2.749075 5.339006 17.263759 4.481984 -1.631852 4.503677 -0.785595 -30.470010 -11.602479 41.682882 179.434875 75.185479 -179.793761 0.000000 0.000000 0.000000 
5.884119 14.948198 -1.666458 0.000000 0.000000 0.000000 4.449653 -36.796801 10.403804 -83.920902 -22.656263 57.891693 69.588713 15.603069 -8.271416 53.427604 -4.748108 -3.900992 -2.863922 0.831345 0.219662 0.000000 0.000000 0.000000 0.191471 -31.684377 9.801466 13.956400 -0.681614 -23.956757 110.407576 15.010048 -5.297519 10.258435 5.152876 22.084829 43.890475 -1.859257 -16.958419 0.000000 0.000000 0.000000 1.029705 -37.942978 9.199958 2.331391 -2.480201 -5.699670 2.263312 -3.873506 -2.664796 0.944064 0.892646 0.066699 0.000000 0.000000 0.000000 1.750670 -4.188897 -2.511817 -0.375424 1.262926 3.688698 1.800419 15.303903 6.317385 0.000000 0.000000 0.000000 1.740796 -3.883643 -2.778012 1.407190 2.028583 -0.055539 -4.959706 0.780436 -1.346031 0.469379 -15.659918 -48.882776 -177.036741 -86.574000 -176.384745 0.000000 0.000000 0.000000 3.026150 -3.878608 -2.913409 5.262659 17.412912 5.263036 -1.683732 4.418849 -0.683637 -29.743121 -10.689588 39.795732 179.643551 71.936987 -179.931594 0.000000 0.000000 0.000000 
5.840639 14.962045 -1.663630 0.000000 0.000000 0.000000 4.523707 -36.730609 10.383490 -83.888978 -22.546651 58.018571 69.649468 15.757675 -8.451286 53.371320 -4.861912 -3.783449 -2.954761 0.837453 0.197232 0.000000 0.000000 0.000000 0.261153 -31.590892 9.764535 13.926787 -0.746091 -23.743503 110.365359 14.961200 -5.336558 10.316709 5.129868 22.141725 43.899569 -1.839853 -16.854071 0.000000 0.000000 0.000000 1.112403 -37.737103 9.184541 2.244450 -2.359260 -5.893833 2.324784 -3.808538 -2.808247 0.931694 0.838918 0.072441 0.000000 0.000000 0.000000 1.810266 -4.128707 -2.636041 -0.590570 1.098663 4.215066 1.899861 15.405854 6.367314 0.000000 0.000000 0.000000 1.788844 -3.805975 -2.898513 1.331284 2.318311 0.365784 -4.799325 0.606049 -1.234293 0.473581 -15.915220 -48.912385 -176.066485 -86.415424 -175.341338 0.000000 0.000000 0.000000 3.089469 -3.815231 -3.062903 5.172617 17.579623 6.110000 -1.717547 4.241893 -0.584833 -28.771793 -9.574805 38.013667 179.802490 69.167256 179.987069 0.000000 0.000000 0.000000 
5.794969 14.977744 -1.668043 0.000000 0.000000 0.000000 4.566112 -36.623922 10.322606 -83.877599 -22.444857 58.095110 69.691671 15.909059 -8.577949 53.316829 -5.012909 -3.657504 -3.091066 0.841528 0.188653 0.000000 0.000000 0.000000 0.297390 -31.461976 9.691234 13.921138 -0.860092 -23.512214 110.311879 14.925575 -5.381377 10.428141 5.140752 22.290438 43.835492 -1.837511 -16.804702 0.000000 0.000000 0.000000 1.162803 -37.509889 9.146511 2.159681 -2.237361 -6.076894 2.392611 -3.742709 -2.943603 0.940003 0.797307 0.082915 0.000000 0.000000 0.000000 1.883598 -4.072068 -2.759030 -0.807041 0.965335 4.730683 2.095320 15.599910 6.274081 0.000000 0.000000 0.000000 1.857998 -3.735442 -3.008411 1.253078 2.581630 0.756136 -4.625572 0.476846 -1.084264 0.439592 -16.194573 -48.968532 -175.137388 -86.232873 -174.335456 0.000000 0.000000 0.000000 3.180553 -3.762450 -3.204524 5.077388 17.743383 6.953714 -1.749308 4.035612 -0.509771 -27.373756 -8.160567 36.282235 179.962576 66.778691 179.894602 0.000000 0.000000 0.000000 
5.746862 14.995281 -1.675665 0.000000 0.000000 0.000000 4.577814 -36.453526 10.231990 -83.896320 -22.344742 58.098648 69.692805 16.065553 -8.655153 53.292770 -5.175341 -3.518071 -3.239157 0.843663 0.171447 0.000000 0.000000 0.000000 0.312043 -31.294738 9.600971 13.932560 -1.010402 -23.265704 110.229609 14.900216 -5.424113 10.569818 5.174058 22.522105 43.751952 -1.852171 -16.773544 0.000000 0.000000 0.000000 1.188055 -37.253498 9.096455 2.081899 -2.122338 -6.253000 2.452040 -3.677665 -3.076065 0.933779 0.754225 0.079235 0.000000 0.000000 0.000000 1.968773 -4.019948 -2.881849 -1.026964 0.879684 5.198810 2.346046 15.887795 6.045660 0.000000 0.000000 0.000000 1.937436 -3.672678 -3.110760 1.177263 2.815203 1.126345 -4.490555 0.415491 -0.967263 0.381989 -16.487875 -49.100522 -174.267987 -86.041211 -173.394570 0.000000 0.000000 0.000000 3.267365 -3.725485 -3.341787 4.989533 17.881353 7.702061 -1.755056 3.869680 -0.476455 -25.528942 -6.527724 34.683308 -179.890531 64.602361 179.788529 0.000000 0.000000 0.000000 
5.694706 15.014828 -1.683239 0.000000 0.000000 0.000000 4.574216 -36.217543 10.132907 -83.960572 -22.239151 58.027163 69.635664 16.223361 -8.693356 53.312803 -5.329069 -3.370012 -3.368240 0.846011 0.142580 0.000000 0.000000 0.000000 0.321248 -31.083043 9.511927 13.984481 -1.177743 -23.000138 110.089973 14.887570 -5.455583 10.701370 5.214235 22.801992 43.714669 -1.878867 -16.720916 0.000000 0.000000 0.000000 1.203914 -36.958905 9.050515 2.009228 -2.017391 -6.423355 2.489265 -3.615134 -3.205914 0.932910 0.743539 0.060274 0.000000 0.000000 0.000000 2.049971 -3.969983 -3.001109 -1.255367 0.841685 5.584971 2.610236 16.236915 5.711802 0.000000 0.000000 0.000000 2.001906 -3.612846 -3.209083 1.107535 3.013126 1.466765 -4.394984 0.417309 -0.922328 0.357356 -16.814061 -49.303355 -173.498826 -85.879916 -172.567407 0.000000 0.000000 0.000000 3.323676 -3.699390 -3.473145 4.923576 17.967400 8.283353 -1.738577 3.753200 -0.450291 -23.336000 -4.813202 33.370549 -179.781453 62.554124 179.688234 0.000000 0.000000 0.000000 
5.638563 15.035364 -1.684446 0.000000 0.000000 0.000000 4.569508 -35.934715 10.040531 -84.072908 -22.115927 57.891276 69.514155 16.391663 -8.707264 53.369049 -5.445129 -3.196086 -3.467958 0.847810 0.117392 0.000000 0.000000 0.000000 0.340106 -30.824097 9.435300 14.098515 -1.346429 -22.709413 109.868230 14.882764 -5.472127 10.788617 5.250696 23.087923 43.768518 -1.910216 -16.618784 0.000000 0.000000 0.000000 1.223627 -36.624342 9.016595 1.939923 -1.916150 -6.586012 2.497199 -3.548373 -3.326609 0.955421 0.745287 0.052839 0.000000 0.000000 0.000000 2.113977 -3.911709 -3.105222 -1.482853 0.850377 5.856475 2.845819 16.599788 5.315842 0.000000 0.000000 0.000000 2.044038 -3.544030 -3.299708 1.048775 3.177300 1.760688 -4.317529 0.464394 -0.940034 0.437321 -17.205453 -49.535086 -172.848879 -85.827447 -171.886778 0.000000 0.000000 0.000000 3.330870 -3.665284 -3.592445 4.878382 18.012785 8.676994 -1.666621 3.705695 -0.399899 -20.967252 -3.179089 32.451526 -179.733805 60.644662 179.614919 0.000000 0.000000 0.000000 
5.577574 15.057204 -1.676609 0.000000 0.000000 0.000000 4.571833 -35.638336 9.961767 -84.230323 -21.973897 57.714422 69.354950 16.562999 -8.706518 53.454222 -5.512693 -2.998591 -3.517278 0.849528 0.103349 0.000000 0.000000 0.000000 0.365143 -30.538879 9.371435 14.271015 -1.518743 -22.398627 109.573146 14.887750 -5.469916 10.845147 5.286325 23.368989 43.894419 -1.938731 -16.461051 0.000000 0.000000 0.000000 1.248123 -36.260996 8.992431 1.871196 -1.804912 -6.738458 2.476035 -3.465486 -3.429749 0.982582 0.767187 0.047337 0.000000 0.000000 0.000000 2.153326 -3.831206 -3.187595 -1.692437 0.883154 5.995024 3.026053 16.913802 4.903706 0.000000 0.000000 0.000000 2.056187 -3.453245 -3.375579 1.005015 3.295288 1.986475 -4.249816 0.474694 -0.968118 0.675709 -17.684227 -49.715253 -172.312108 -85.932925 -171.351592 0.000000 0.000000 0.000000 3.289454 -3.603066 -3.688014 4.854249 18.035965 8.881288 -1.551843 3.664180 -0.329725 -18.642726 -1.696456 31.993088 -179.763762 58.955242 179.593827 0.000000 0.000000 0.000000 
